<svg width="20" height="20" viewBox="0 0 20 20" fill="none" xmlns="http://www.w3.org/2000/svg">
<g clip-path="url(#clip0_1_48)">
<path d="M20 3.79752C19.2642 4.12419 18.4733 4.34419 17.6433 4.44335C18.4908 3.93585 19.1417 3.13169 19.4475 2.17335C18.655 2.64335 17.7767 2.98502 16.8417 3.16919C16.0942 2.37169 15.0267 1.87335 13.8467 1.87335C11.1975 1.87335 9.25083 4.34502 9.84917 6.91085C6.44 6.74002 3.41667 5.10669 1.3925 2.62419C0.3175 4.46835 0.835 6.88085 2.66167 8.10252C1.99 8.08085 1.35667 7.89669 0.804167 7.58919C0.759167 9.49002 2.12167 11.2684 4.095 11.6642C3.5175 11.8209 2.885 11.8575 2.24167 11.7342C2.76333 13.3642 4.27833 14.55 6.075 14.5834C4.35 15.9359 2.17667 16.54 0 16.2834C1.81583 17.4475 3.97333 18.1267 6.29 18.1267C13.9083 18.1267 18.2125 11.6925 17.9525 5.92169C18.7542 5.34252 19.45 4.62002 20 3.79752Z" fill="#FFFEFA"/>
</g>
<defs>
<clipPath id="clip0_1_48">
<rect width="20" height="20" fill="white"/>
</clipPath>
</defs>
</svg>
